<?xml version="1.0" standalone="no"?><!DOCTYPE svg PUBLIC "-//W3C//DTD SVG 1.1//EN" "http://www.w3.org/Graphics/SVG/1.1/DTD/svg11.dtd"><svg class="icon" height="512" viewBox="0 0 1024 1024" version="1.1" xmlns="http://www.w3.org/2000/svg"><path d="M102.4 558.32381c36.571429 0 73.142857 0 107.27619 7.314285 124.342857 24.380952 168.228571 85.333333 192.609524 229.180953 7.314286 51.2 12.190476 112.152381 17.066667 156.038095-85.333333-19.504762-160.914286-60.952381-219.428571-121.904762-60.952381-63.390476-104.838095-146.285714-121.904762-236.495238-2.438095-26.819048 7.314286-34.133333 24.380952-34.133333M95.085714 365.714286c21.942857-65.828571 58.514286-126.780952 104.838096-175.542857 80.457143-82.895238 195.047619-124.342857 309.638095-124.342858 114.590476 0 229.180952 41.447619 309.638095 124.342858 48.761905 48.761905 85.333333 109.714286 104.838095 175.542857 4.87619 21.942857-2.438095 34.133333-24.380952 31.695238-73.142857-2.438095-226.742857-4.87619-258.438095-7.314286 26.819048 31.695238 43.885714 73.142857 43.885714 119.466667 0 51.2-19.504762 95.085714-51.2 129.219047-12.190476 12.190476-24.380952 21.942857-39.009524 29.257143a169.447619 169.447619 0 0 1-173.104762 0c-14.628571-7.314286-26.819048-19.504762-39.009524-29.257143-31.695238-31.695238-51.2-78.019048-51.2-129.219047 0-46.32381 17.066667-87.771429 43.885715-119.466667-31.695238 2.438095-187.733333 4.87619-258.438096 7.314286-19.504762 2.438095-26.819048-9.752381-21.942857-31.695238m848.457143 224.304762c-17.066667 92.647619-58.514286 173.104762-121.904762 236.495238-58.514286 60.952381-134.095238 104.838095-219.428571 121.904762 4.87619-43.885714 9.752381-104.838095 17.066666-156.038096 21.942857-143.847619 65.828571-204.8 192.609524-229.180952 34.133333-7.314286 70.704762-7.314286 107.276191-7.314286 19.504762 2.438095 29.257143 9.752381 24.380952 34.133334M512 1024c282.819048 0 512-229.180952 512-512S794.819048 0 512 0 0 229.180952 0 512s229.180952 512 512 512M412.038095 609.52381c9.752381 9.752381 21.942857 17.066667 34.133334 24.380952 41.447619 21.942857 90.209524 21.942857 131.657142 0 12.190476-7.314286 24.380952-14.628571 34.133334-24.380952 24.380952-24.380952 41.447619-60.952381 41.447619-99.961905 0-39.009524-14.628571-73.142857-41.447619-99.961905-51.2-51.2-146.285714-51.2-197.485715 0-24.380952 24.380952-41.447619 60.952381-41.447619 99.961905 0 39.009524 14.628571 75.580952 39.009524 99.961905" /></svg>