<svg width="375" height="273" viewBox="0 0 375 273" fill="none" xmlns="http://www.w3.org/2000/svg">
<g clip-path="url(#clip0)">
<path fill-rule="evenodd" clip-rule="evenodd" d="M492.356 -209.385C507.286 -181.865 527.837 -155.226 524.959 -123.586C521.971 -90.7331 514.954 -48.6407 475.812 -27.496C430.484 -3.00931 368.502 -35.3595 321.128 -13.4749C277.863 6.5111 283.914 60.3961 241.057 80.9494C201.969 99.695 156.286 83.2914 112.942 86.3667C56.5652 90.3666 -12.1515 123.419 -54.6625 101.931C-96.3626 80.8521 -71.2153 26.1602 -81.4475 -11.8923C-89.8826 -43.2617 -112.658 -70.7034 -110.036 -103.999C-107.436 -137.022 -81.1051 -168.634 -66.5175 -201.504C-50.2324 -238.199 -59.2367 -283.554 -18.4301 -310.414C23.3134 -337.891 83.4039 -329.252 135.152 -334.249C175.899 -338.184 219.052 -346.303 254.876 -336.808C289.106 -327.736 296.547 -293.299 329.658 -282.695C362.726 -272.106 411.377 -290.651 441.75 -276.965C471.832 -263.411 479.099 -233.821 492.356 -209.385Z" fill="#219653"/>
<path fill-rule="evenodd" clip-rule="evenodd" d="M131.497 267.167C98.6424 260.403 119.133 212.037 85.3892 207.668C40.4441 201.849 -22.4933 273.843 -36.2132 245.454C-53.7642 209.138 60.0892 190.097 58.6015 152.24C57.7314 130.099 -12.7394 149.632 -40.4992 136.385C-64.8683 124.756 -88.2774 103.893 -82.5361 84.8873C-77.0907 66.8611 -36.0014 64.8161 -15.1636 52.5159C2.59964 42.0305 10.1733 24.5811 31.6216 17.5017C53.0923 10.4149 84.5032 3.29106 103.432 13.371C132.916 29.0713 130.972 58.8406 149.669 80.3628C154.361 85.7636 166.251 86.9437 171.755 92.0186C176.905 96.7665 171.315 107.186 180.038 108.364C212.203 112.706 245.848 99.9676 277.287 106.264C318.946 114.607 418.729 130.361 388.41 150.095C345.113 178.275 234.707 119.109 204.359 153.73C175.169 187.029 305.762 213.588 299.191 251.874C295.015 276.205 228.754 226.073 191.357 229.483C163.386 232.034 158.634 272.753 131.497 267.167Z" fill="#27AE60"/>
<path fill-rule="evenodd" clip-rule="evenodd" d="M180.268 -242.043C214.038 -271.203 271.182 -256.355 305.568 -284.786C336.386 -310.267 321.521 -378.425 359.679 -390.383C398.757 -402.629 427.272 -336.005 468.224 -335.758C513.435 -335.486 547.202 -398.664 591.365 -388.986C630.55 -380.398 644.095 -329.105 662.117 -293.266C678.405 -260.874 685.248 -225.491 691.535 -189.782C697.541 -155.67 709.211 -120.138 698.39 -87.234C687.67 -54.6365 657.113 -33.4867 632.329 -9.75291C610.848 10.8181 584.848 24.5087 561.921 43.4544C535.779 65.0569 516.778 94.5144 486.849 110.463C451.898 129.088 413.598 146.276 374.088 143.546C333.328 140.73 299.165 114.009 263.001 94.9953C220.298 72.543 168.005 60.4746 140.587 20.7767C113.192 -18.889 107.397 -72.2152 114.594 -119.882C121.572 -166.101 144.889 -211.494 180.268 -242.043Z" fill="#26773B"/>
</g>
<defs>
<clipPath id="clip0">
<rect width="789" height="273" fill="white"/>
</clipPath>
</defs>
</svg>
