<?xml version="1.0" encoding="UTF-8"?>
<svg xmlns="http://www.w3.org/2000/svg" xmlns:xlink="http://www.w3.org/1999/xlink" width="108pt" height="108pt" viewBox="0 0 108 108" version="1.1">
<g id="surface1">
<path style=" stroke:none;fill-rule:nonzero;fill:rgb(20%,65.882353%,32.156863%);fill-opacity:1;" d="M 98.039062 49.253906 C 91.964844 47.496094 89.535156 46.824219 82.015625 45.089844 C 82.015625 45.089844 71.289062 34.457031 69.238281 32.402344 C 66.6875 29.816406 64.542969 27.054688 55.949219 27.054688 L 20.347656 27.054688 C 18.042969 27.054688 17.03125 29.527344 20.03125 31.5625 C 16.691406 34.285156 12.730469 37.792969 9.847656 40.707031 C 3.378906 47.269531 0 51.464844 0 59.894531 C 0 67.84375 4.703125 76.671875 14.3125 76.671875 L 14.359375 76.671875 C 16.21875 81.90625 21.179688 85.683594 27.054688 85.683594 C 32.941406 85.683594 37.894531 81.90625 39.757812 76.671875 L 68.472656 76.671875 C 70.332031 81.90625 75.292969 85.683594 81.171875 85.683594 C 87.046875 85.683594 92.003906 81.90625 93.871094 76.671875 L 96.960938 76.671875 C 105.949219 76.671875 108.230469 68.65625 108.230469 62.394531 C 108.230469 53.183594 103.171875 50.738281 98.039062 49.253906 Z M 27.054688 77.566406 C 24.074219 77.566406 21.644531 75.140625 21.644531 72.152344 C 21.644531 69.171875 24.074219 66.746094 27.054688 66.746094 C 30.046875 66.746094 32.46875 69.171875 32.46875 72.152344 C 32.46875 75.140625 30.046875 77.566406 27.054688 77.566406 Z M 43.1875 49.609375 C 38.355469 49.609375 27.402344 49.128906 19.648438 46.230469 C 22.253906 42.84375 24.148438 40.714844 25.375 39.296875 C 26.808594 37.636719 29.316406 36.085938 32.417969 36.085938 L 43.1875 36.085938 Z M 47.695312 36.085938 L 55.976562 36.085938 C 59.949219 36.085938 62.40625 38.300781 65.089844 41.058594 C 67.125 43.164062 72.898438 49.609375 72.898438 49.609375 L 47.703125 49.609375 L 47.703125 36.085938 Z M 81.175781 77.566406 C 78.191406 77.566406 75.765625 75.140625 75.765625 72.152344 C 75.765625 69.171875 78.191406 66.746094 81.175781 66.746094 C 84.15625 66.746094 86.589844 69.171875 86.589844 72.152344 C 86.589844 75.140625 84.15625 77.566406 81.175781 77.566406 Z M 81.175781 77.566406 "/>
</g>
</svg>
